<svg width="295" height="407" viewBox="0 0 295 407" fill="none" xmlns="http://www.w3.org/2000/svg">
<rect width="295" height="407" rx="10" fill="#131A24"/>
<path d="M35.21 44V43.274C35.7673 43.2447 36.1487 43.12 36.354 42.9C36.5593 42.6653 36.6693 42.35 36.684 41.954C36.7133 41.5433 36.728 41.0813 36.728 40.568V31.064C36.728 30.7707 36.7353 30.492 36.75 30.228C36.7647 29.9493 36.7793 29.7 36.794 29.48C36.53 29.4947 36.266 29.5093 36.002 29.524C35.738 29.5387 35.474 29.5533 35.21 29.568V28.6H49.532V29.326C48.9893 29.3407 48.608 29.4653 48.388 29.7C48.1827 29.9347 48.0653 30.25 48.036 30.646C48.0213 31.042 48.014 31.504 48.014 32.032V41.382C48.014 41.778 48.0067 42.1227 47.992 42.416C47.992 42.6947 47.9773 42.9293 47.948 43.12C48.212 43.1053 48.476 43.0907 48.74 43.076C49.004 43.0613 49.268 43.0467 49.532 43.032V44H44.56V43.274C45.1173 43.2447 45.4987 43.12 45.704 42.9C45.924 42.6653 46.0413 42.35 46.056 41.954C46.0853 41.5433 46.1 41.0813 46.1 40.568V29.458L40.16 29.546C39.72 29.5607 39.39 29.6487 39.17 29.81C38.9647 29.9567 38.8253 30.162 38.752 30.426C38.6933 30.69 38.6567 30.998 38.642 31.35V41.382C38.642 41.778 38.6347 42.1227 38.62 42.416C38.62 42.6947 38.6053 42.9293 38.576 43.12C38.84 43.1053 39.104 43.0907 39.368 43.076C39.632 43.0613 39.896 43.0467 40.16 43.032V44H35.21ZM56.6662 44.352C55.6395 44.352 54.7082 44.1173 53.8722 43.648C53.0362 43.164 52.3689 42.504 51.8702 41.668C51.3862 40.8173 51.1442 39.8493 51.1442 38.764C51.1442 37.6053 51.3862 36.564 51.8702 35.64C52.3542 34.716 53.0142 33.99 53.8502 33.462C54.6862 32.9193 55.6249 32.648 56.6662 32.648C57.6929 32.648 58.6242 32.8973 59.4602 33.396C60.2962 33.88 60.9635 34.54 61.4622 35.376C61.9609 36.212 62.2102 37.1653 62.2102 38.236C62.2102 39.3653 61.9609 40.3993 61.4622 41.338C60.9782 42.262 60.3182 42.9953 59.4822 43.538C58.6462 44.0807 57.7075 44.352 56.6662 44.352ZM56.8422 43.472C57.6195 43.472 58.2355 43.252 58.6902 42.812C59.1449 42.372 59.4675 41.8 59.6582 41.096C59.8635 40.392 59.9662 39.6513 59.9662 38.874C59.9662 38.214 59.9002 37.5687 59.7682 36.938C59.6509 36.2927 59.4602 35.7133 59.1962 35.2C58.9322 34.672 58.5875 34.254 58.1622 33.946C57.7515 33.638 57.2529 33.484 56.6662 33.484C55.9035 33.484 55.2802 33.704 54.7962 34.144C54.3122 34.584 53.9529 35.156 53.7182 35.86C53.4982 36.564 53.3882 37.3193 53.3882 38.126C53.3882 39.0353 53.5129 39.9007 53.7622 40.722C54.0115 41.5287 54.3929 42.1887 54.9062 42.702C55.4195 43.2153 56.0649 43.472 56.8422 43.472ZM75.2266 44.352C74.244 44.352 73.3346 44.132 72.4986 43.692C71.6773 43.2373 71.0173 42.592 70.5186 41.756C70.0346 40.9053 69.7926 39.886 69.7926 38.698C69.7926 37.9353 69.932 37.1947 70.2106 36.476C70.4893 35.7573 70.878 35.112 71.3766 34.54C71.89 33.9533 72.4986 33.4913 73.2026 33.154C73.9066 32.8167 74.684 32.648 75.5346 32.648C76.356 32.648 77.0673 32.7727 77.6686 33.022C78.2846 33.2713 78.7613 33.6013 79.0986 34.012C79.436 34.4227 79.6046 34.87 79.6046 35.354C79.6046 35.6767 79.5166 35.9553 79.3406 36.19C79.1646 36.41 78.908 36.52 78.5706 36.52C78.204 36.5347 77.94 36.4247 77.7786 36.19C77.632 35.9407 77.5586 35.7207 77.5586 35.53C77.5586 35.3833 77.5806 35.2367 77.6246 35.09C77.6686 34.9287 77.7566 34.782 77.8886 34.65C77.7713 34.298 77.566 34.0413 77.2726 33.88C76.9793 33.704 76.6713 33.594 76.3486 33.55C76.0406 33.4913 75.784 33.462 75.5786 33.462C74.5813 33.462 73.738 33.8653 73.0486 34.672C72.374 35.464 72.0366 36.6227 72.0366 38.148C72.0366 39.1307 72.1906 40.0033 72.4986 40.766C72.8213 41.5287 73.2686 42.13 73.8406 42.57C74.4126 42.9953 75.0726 43.208 75.8206 43.208C76.51 43.208 77.17 43.0247 77.8006 42.658C78.4313 42.2913 78.9226 41.844 79.2746 41.316L79.8466 41.756C79.4653 42.372 79.0033 42.8707 78.4606 43.252C77.9326 43.6333 77.3826 43.912 76.8106 44.088C76.2533 44.264 75.7253 44.352 75.2266 44.352ZM83.7676 44V43.34C84.2223 43.34 84.5376 43.23 84.7136 43.01C84.8896 42.7753 84.9923 42.46 85.0216 42.064C85.0656 41.6533 85.0876 41.184 85.0876 40.656V35.332C85.0876 35.0387 85.0876 34.7967 85.0876 34.606C85.1023 34.4007 85.1316 34.1733 85.1756 33.924H83.6136C83.0269 33.924 82.5943 34.0927 82.3156 34.43C82.0516 34.7673 81.9196 35.398 81.9196 36.322H81.0836L81.1716 33H90.8956L91.0056 36.322H90.1696C90.1549 35.398 90.0156 34.7673 89.7516 34.43C89.5023 34.0927 89.0329 33.924 88.3436 33.924H86.9796V41.668C86.9796 41.9613 86.9723 42.2253 86.9576 42.46C86.9576 42.68 86.9356 42.9147 86.8916 43.164L88.2776 43.098V44H83.7676ZM99.1482 44C99.1042 43.7507 99.0749 43.5307 99.0602 43.34C99.0455 43.1493 99.0235 42.9513 98.9942 42.746C98.4955 43.2447 97.9529 43.6407 97.3662 43.934C96.7942 44.2127 96.1855 44.352 95.5402 44.352C94.4255 44.352 93.5969 44.1027 93.0542 43.604C92.5115 43.0907 92.2402 42.4673 92.2402 41.734C92.2402 41.0593 92.4455 40.48 92.8562 39.996C93.2815 39.4973 93.8242 39.094 94.4842 38.786C95.1589 38.4633 95.8849 38.2287 96.6622 38.082C97.4542 37.9207 98.2169 37.8473 98.9502 37.862V36.498C98.9502 35.9847 98.9062 35.5007 98.8182 35.046C98.7302 34.5913 98.5395 34.2173 98.2462 33.924C97.9529 33.6307 97.4835 33.4767 96.8382 33.462C96.4129 33.4473 95.9729 33.528 95.5182 33.704C95.0782 33.88 94.7555 34.1807 94.5502 34.606C94.6675 34.7233 94.7409 34.8627 94.7702 35.024C94.8142 35.1707 94.8362 35.31 94.8362 35.442C94.8362 35.618 94.7629 35.8233 94.6162 36.058C94.4695 36.278 94.2129 36.3807 93.8462 36.366C93.5382 36.366 93.3035 36.2633 93.1422 36.058C92.9809 35.838 92.9002 35.5813 92.9002 35.288C92.9002 34.7893 93.0835 34.342 93.4502 33.946C93.8315 33.55 94.3522 33.2347 95.0122 33C95.6722 32.7653 96.4202 32.648 97.2562 32.648C98.4882 32.648 99.3975 32.978 99.9842 33.638C100.571 34.2833 100.857 35.31 100.842 36.718C100.842 37.2607 100.842 37.8107 100.842 38.368C100.842 38.9107 100.835 39.4607 100.82 40.018C100.82 40.5607 100.82 41.1107 100.82 41.668C100.82 41.9027 100.813 42.1373 100.798 42.372C100.784 42.6067 100.762 42.8707 100.732 43.164C100.996 43.1493 101.253 43.1347 101.502 43.12C101.766 43.1053 102.03 43.0907 102.294 43.076V44H99.1482ZM98.9502 38.61C98.4515 38.6247 97.9235 38.6907 97.3662 38.808C96.8235 38.9107 96.3175 39.072 95.8482 39.292C95.3935 39.512 95.0195 39.8053 94.7262 40.172C94.4475 40.524 94.3155 40.9567 94.3302 41.47C94.3595 42.0127 94.5355 42.4233 94.8582 42.702C95.1955 42.966 95.5915 43.098 96.0462 43.098C96.6475 43.098 97.1682 42.988 97.6082 42.768C98.0629 42.5333 98.5102 42.2107 98.9502 41.8C98.9355 41.6387 98.9282 41.4627 98.9282 41.272C98.9282 41.0813 98.9282 40.8833 98.9282 40.678C98.9282 40.6047 98.9282 40.37 98.9282 39.974C98.9429 39.578 98.9502 39.1233 98.9502 38.61ZM106.004 44V43.34C106.459 43.34 106.774 43.23 106.95 43.01C107.126 42.7753 107.229 42.46 107.258 42.064C107.302 41.6533 107.324 41.184 107.324 40.656V35.332C107.324 35.0387 107.324 34.7967 107.324 34.606C107.339 34.4007 107.368 34.1733 107.412 33.924H105.85C105.263 33.924 104.831 34.0927 104.552 34.43C104.288 34.7673 104.156 35.398 104.156 36.322H103.32L103.408 33H113.132L113.242 36.322H112.406C112.391 35.398 112.252 34.7673 111.988 34.43C111.739 34.0927 111.269 33.924 110.58 33.924H109.216V41.668C109.216 41.9613 109.209 42.2253 109.194 42.46C109.194 42.68 109.172 42.9147 109.128 43.164L110.514 43.098V44H106.004ZM119.229 33.66C118.774 33.66 118.459 33.7773 118.283 34.012C118.107 34.232 118.004 34.5473 117.975 34.958C117.945 35.354 117.923 35.816 117.909 36.344L117.887 41.668C117.887 41.9613 117.879 42.2253 117.865 42.46C117.865 42.68 117.843 42.9147 117.799 43.164C118.033 43.1493 118.261 43.142 118.481 43.142C118.715 43.1273 118.95 43.1127 119.185 43.098V44H114.697V43.34C115.151 43.34 115.467 43.23 115.643 43.01C115.819 42.7753 115.921 42.46 115.951 42.064C115.995 41.6533 116.017 41.184 116.017 40.656V35.332C116.017 35.0387 116.017 34.782 116.017 34.562C116.031 34.3273 116.061 34.0853 116.105 33.836C115.87 33.8507 115.635 33.8653 115.401 33.88C115.181 33.88 114.953 33.8873 114.719 33.902V33H119.229V33.66ZM123.541 34.056L124.245 34.584L117.491 43.054L116.743 42.438L123.541 34.056ZM126.555 33.66C126.115 33.66 125.799 33.7773 125.609 34.012C125.433 34.232 125.33 34.5473 125.301 34.958C125.271 35.354 125.257 35.816 125.257 36.344L125.213 41.668C125.213 41.9613 125.205 42.2253 125.191 42.46C125.191 42.68 125.176 42.9147 125.147 43.164C125.381 43.1493 125.609 43.142 125.829 43.142C126.063 43.1273 126.298 43.1127 126.533 43.098V44H122.023V43.34C122.477 43.34 122.793 43.23 122.969 43.01C123.145 42.7753 123.247 42.46 123.277 42.064C123.321 41.6533 123.343 41.184 123.343 40.656L123.365 35.332C123.365 35.0387 123.365 34.782 123.365 34.562C123.379 34.3273 123.409 34.0853 123.453 33.836C123.218 33.8507 122.983 33.8653 122.749 33.88C122.529 33.88 122.301 33.8873 122.067 33.902V33H126.555V33.66ZM133.857 44.352C132.875 44.352 131.965 44.132 131.129 43.692C130.308 43.2373 129.648 42.592 129.149 41.756C128.665 40.9053 128.423 39.886 128.423 38.698C128.423 37.9353 128.563 37.1947 128.841 36.476C129.12 35.7573 129.509 35.112 130.007 34.54C130.521 33.9533 131.129 33.4913 131.833 33.154C132.537 32.8167 133.315 32.648 134.165 32.648C134.987 32.648 135.698 32.7727 136.299 33.022C136.915 33.2713 137.392 33.6013 137.729 34.012C138.067 34.4227 138.235 34.87 138.235 35.354C138.235 35.6767 138.147 35.9553 137.971 36.19C137.795 36.41 137.539 36.52 137.201 36.52C136.835 36.5347 136.571 36.4247 136.409 36.19C136.263 35.9407 136.189 35.7207 136.189 35.53C136.189 35.3833 136.211 35.2367 136.255 35.09C136.299 34.9287 136.387 34.782 136.519 34.65C136.402 34.298 136.197 34.0413 135.903 33.88C135.61 33.704 135.302 33.594 134.979 33.55C134.671 33.4913 134.415 33.462 134.209 33.462C133.212 33.462 132.369 33.8653 131.679 34.672C131.005 35.464 130.667 36.6227 130.667 38.148C130.667 39.1307 130.821 40.0033 131.129 40.766C131.452 41.5287 131.899 42.13 132.471 42.57C133.043 42.9953 133.703 43.208 134.451 43.208C135.141 43.208 135.801 43.0247 136.431 42.658C137.062 42.2913 137.553 41.844 137.905 41.316L138.477 41.756C138.096 42.372 137.634 42.8707 137.091 43.252C136.563 43.6333 136.013 43.912 135.441 44.088C134.884 44.264 134.356 44.352 133.857 44.352ZM142.398 44V43.34C142.853 43.34 143.168 43.23 143.344 43.01C143.52 42.7753 143.623 42.46 143.652 42.064C143.696 41.6533 143.718 41.184 143.718 40.656V35.332C143.718 35.0387 143.718 34.7967 143.718 34.606C143.733 34.4007 143.762 34.1733 143.806 33.924H142.244C141.658 33.924 141.225 34.0927 140.946 34.43C140.682 34.7673 140.55 35.398 140.55 36.322H139.714L139.802 33H149.526L149.636 36.322H148.8C148.786 35.398 148.646 34.7673 148.382 34.43C148.133 34.0927 147.664 33.924 146.974 33.924H145.61V41.668C145.61 41.9613 145.603 42.2253 145.588 42.46C145.588 42.68 145.566 42.9147 145.522 43.164L146.908 43.098V44H142.398ZM155.623 33.66C155.168 33.66 154.853 33.7773 154.677 34.012C154.501 34.232 154.398 34.5473 154.369 34.958C154.34 35.354 154.318 35.816 154.303 36.344L154.281 41.668C154.281 41.9613 154.274 42.2253 154.259 42.46C154.259 42.68 154.237 42.9147 154.193 43.164C154.428 43.1493 154.655 43.142 154.875 43.142C155.11 43.1273 155.344 43.1127 155.579 43.098V44H151.091V43.34C151.546 43.34 151.861 43.23 152.037 43.01C152.213 42.7753 152.316 42.46 152.345 42.064C152.389 41.6533 152.411 41.184 152.411 40.656V35.332C152.411 35.0387 152.411 34.782 152.411 34.562C152.426 34.3273 152.455 34.0853 152.499 33.836C152.264 33.8507 152.03 33.8653 151.795 33.88C151.575 33.88 151.348 33.8873 151.113 33.902V33H155.623V33.66ZM159.935 34.056L160.639 34.584L153.885 43.054L153.137 42.438L159.935 34.056ZM162.949 33.66C162.509 33.66 162.194 33.7773 162.003 34.012C161.827 34.232 161.724 34.5473 161.695 34.958C161.666 35.354 161.651 35.816 161.651 36.344L161.607 41.668C161.607 41.9613 161.6 42.2253 161.585 42.46C161.585 42.68 161.57 42.9147 161.541 43.164C161.776 43.1493 162.003 43.142 162.223 43.142C162.458 43.1273 162.692 43.1127 162.927 43.098V44H158.417V43.34C158.872 43.34 159.187 43.23 159.363 43.01C159.539 42.7753 159.642 42.46 159.671 42.064C159.715 41.6533 159.737 41.184 159.737 40.656L159.759 35.332C159.759 35.0387 159.759 34.782 159.759 34.562C159.774 34.3273 159.803 34.0853 159.847 33.836C159.612 33.8507 159.378 33.8653 159.143 33.88C158.923 33.88 158.696 33.8873 158.461 33.902V33H162.949V33.66ZM164.664 44V43.34C165.119 43.34 165.434 43.23 165.61 43.01C165.786 42.7753 165.889 42.46 165.918 42.064C165.962 41.6533 165.984 41.184 165.984 40.656L166.006 35.332C166.006 35.0387 166.006 34.782 166.006 34.562C166.021 34.3273 166.05 34.0853 166.094 33.836C165.859 33.8507 165.625 33.8653 165.39 33.88C165.17 33.88 164.943 33.8873 164.708 33.902V33H169.196V33.66C168.756 33.66 168.441 33.7773 168.25 34.012C168.074 34.232 167.971 34.5473 167.942 34.958C167.913 35.354 167.898 35.816 167.898 36.344L167.876 37.796H168.734L171.418 34.98C171.667 34.7307 171.895 34.5107 172.1 34.32C172.305 34.1147 172.511 33.946 172.716 33.814L171.22 33.88V33H175.224V33.66C174.725 33.704 174.256 33.8653 173.816 34.144C173.391 34.408 172.995 34.7087 172.628 35.046C172.276 35.3833 171.968 35.6913 171.704 35.97L169.988 37.774C170.281 37.906 170.531 38.0747 170.736 38.28C170.941 38.4853 171.147 38.7127 171.352 38.962L172.914 40.964C172.987 41.052 173.112 41.2207 173.288 41.47C173.479 41.7193 173.699 41.9907 173.948 42.284C174.212 42.5773 174.483 42.8267 174.762 43.032C175.055 43.2373 175.327 43.34 175.576 43.34V44H173.574C173.163 44 172.775 43.7873 172.408 43.362C172.041 42.9367 171.653 42.46 171.242 41.932C170.861 41.404 170.516 40.9273 170.208 40.502C169.915 40.062 169.643 39.6807 169.394 39.358C169.159 39.0353 168.947 38.786 168.756 38.61L167.876 38.654L167.854 41.668C167.854 41.9613 167.847 42.2253 167.832 42.46C167.832 42.68 167.81 42.9147 167.766 43.164C168.001 43.1493 168.228 43.142 168.448 43.142C168.683 43.1273 168.917 43.1127 169.152 43.098V44H164.664ZM181.874 44.352C180.862 44.352 179.945 44.1173 179.124 43.648C178.317 43.164 177.679 42.4893 177.21 41.624C176.741 40.744 176.506 39.71 176.506 38.522C176.506 37.4953 176.733 36.5347 177.188 35.64C177.657 34.7453 178.31 34.0267 179.146 33.484C179.982 32.9267 180.95 32.648 182.05 32.648C182.666 32.648 183.238 32.7507 183.766 32.956C184.309 33.1467 184.785 33.4473 185.196 33.858C185.607 34.254 185.929 34.76 186.164 35.376C186.399 35.9773 186.516 36.6887 186.516 37.51L178.772 37.642C178.772 38.7567 178.889 39.7393 179.124 40.59C179.373 41.426 179.769 42.0787 180.312 42.548C180.855 43.0027 181.551 43.23 182.402 43.23C182.857 43.23 183.319 43.1493 183.788 42.988C184.272 42.8267 184.719 42.6067 185.13 42.328C185.541 42.0493 185.871 41.7413 186.12 41.404L186.648 41.844C186.252 42.46 185.775 42.9513 185.218 43.318C184.661 43.6847 184.089 43.9487 183.502 44.11C182.915 44.2713 182.373 44.352 181.874 44.352ZM178.838 36.718H184.448C184.448 36.19 184.367 35.684 184.206 35.2C184.059 34.7013 183.81 34.298 183.458 33.99C183.106 33.6673 182.644 33.506 182.072 33.506C181.221 33.506 180.51 33.7627 179.938 34.276C179.381 34.7747 179.014 35.5887 178.838 36.718Z" fill="white"/>
<path d="M35.3324 59.8182V63.2188C35.3324 65.4659 36.6051 66.3011 38.7131 66.3011C39.946 66.3011 40.7067 66.142 41.5369 65.8935V70H42.7699V59.8182H41.5369V64.7749C40.6669 65.0284 39.7422 65.1875 38.7131 65.1875C37.4006 65.1875 36.5653 64.7301 36.5653 63.2188V59.8182H35.3324ZM47.3288 70.179C48.6612 70.179 49.3572 69.4631 49.5959 68.9659H49.6555V70H50.8288V64.9688C50.8288 62.5426 48.9794 62.2642 48.005 62.2642C46.8516 62.2642 45.5391 62.6619 44.9425 64.054L46.0561 64.4517C46.3146 63.8949 46.9261 63.2983 48.0447 63.2983C49.1236 63.2983 49.6555 63.87 49.6555 64.8494V64.8892C49.6555 65.456 49.0788 65.4062 47.6868 65.5852C46.2699 65.7692 44.7237 66.0824 44.7237 67.8324C44.7237 69.3239 45.8771 70.179 47.3288 70.179ZM47.5078 69.125C46.5732 69.125 45.897 68.7074 45.897 67.892C45.897 66.9972 46.7124 66.7188 47.6271 66.5994C48.1243 66.5398 49.4567 66.4006 49.6555 66.1619V67.2358C49.6555 68.1903 48.8999 69.125 47.5078 69.125ZM63.3908 68.9062H62.2573V62.3636H61.084V68.9062H58.2005V62.3636H57.0272V68.9062H54.1436V62.3636H52.9703V70H62.0385V72.1875H63.2516L63.3908 68.9062ZM68.217 70.1591C69.7681 70.1591 70.9016 69.3835 71.2596 68.2301L70.1261 67.9119C69.8278 68.7074 69.1367 69.1051 68.217 69.1051C66.8398 69.1051 65.8903 68.2152 65.8356 66.5795H71.3789V66.0824C71.3789 63.2386 69.6886 62.2642 68.0977 62.2642C66.0295 62.2642 64.6573 63.8949 64.6573 66.2415C64.6573 68.5881 66.0096 70.1591 68.217 70.1591ZM65.8356 65.5653C65.9151 64.3771 66.7553 63.3182 68.0977 63.3182C69.3704 63.3182 70.1857 64.2727 70.1857 65.5653H65.8356ZM80.2035 70.1591C81.8938 70.1591 83.0075 69.125 83.2063 67.7727H82.033C81.8143 68.608 81.1183 69.1051 80.2035 69.1051C78.8114 69.1051 77.9165 67.9517 77.9165 66.1818C77.9165 64.4517 78.8313 63.3182 80.2035 63.3182C81.2376 63.3182 81.854 63.9545 82.033 64.6506H83.2063C83.0075 63.2188 81.7944 62.2642 80.1836 62.2642C78.1154 62.2642 76.7433 63.8949 76.7433 66.2216C76.7433 68.5085 78.0558 70.1591 80.2035 70.1591ZM85.6772 72.8438C86.7362 72.8438 87.4869 72.282 87.9244 71.1136L91.1758 62.3835L89.8931 62.3636L87.7852 68.4489H87.7056L85.5977 62.3636H84.3249L87.1488 70.0398L86.93 70.6364C86.5124 71.7798 85.9755 71.8892 85.1204 71.6705L84.8221 72.7045C84.9414 72.7642 85.2795 72.8438 85.6772 72.8438ZM91.2702 72.1875H92.4435V70H98.0913V72.1875H99.2646V68.9062H98.0913V62.3636H93.239L92.9805 65.3864C92.7965 67.5241 92.5231 68.2599 91.9066 68.9062H91.2702V72.1875ZM93.239 68.9062C93.7759 68.2003 93.9698 66.9822 94.1339 65.3864L94.3327 63.4574H96.918V68.9062H93.239ZM101.995 65.1278V62.3636H100.822V70H104.024C105.813 70 106.788 68.9062 106.788 67.5341C106.788 66.142 105.813 65.1278 104.024 65.1278H101.995ZM108.001 70H109.174V62.3636H108.001V70ZM101.995 66.2216H104.024C104.953 66.2216 105.615 66.7884 105.615 67.5938C105.615 68.3643 104.953 68.9062 104.024 68.9062H101.995V66.2216ZM115.259 70H118.859C120.41 70 121.345 69.125 121.345 67.9517C121.345 66.7536 120.435 66.1072 119.595 65.983C120.455 65.804 121.066 65.3217 121.066 64.392C121.066 63.174 120.022 62.3636 118.382 62.3636H115.259V70ZM116.373 68.9261V66.5795H118.859C119.664 66.5795 120.151 67.0618 120.151 67.8523C120.151 68.5185 119.664 68.9261 118.859 68.9261H116.373ZM116.373 65.5653V63.4375H118.382C119.321 63.4375 119.893 63.8303 119.893 64.4716C119.893 65.1527 119.321 65.5653 118.382 65.5653H116.373ZM126.223 70.1591C127.913 70.1591 129.027 69.125 129.226 67.7727H128.053C127.834 68.608 127.138 69.1051 126.223 69.1051C124.831 69.1051 123.936 67.9517 123.936 66.1818C123.936 64.4517 124.851 63.3182 126.223 63.3182C127.257 63.3182 127.874 63.9545 128.053 64.6506H129.226C129.027 63.2188 127.814 62.2642 126.203 62.2642C124.135 62.2642 122.763 63.8949 122.763 66.2216C122.763 68.5085 124.075 70.1591 126.223 70.1591ZM130.339 63.4574H132.865V70H134.038V63.4574H136.544V62.3636H130.339V63.4574ZM140.106 70.179C141.439 70.179 142.135 69.4631 142.373 68.9659H142.433V70H143.606V64.9688C143.606 62.5426 141.757 62.2642 140.782 62.2642C139.629 62.2642 138.316 62.6619 137.72 64.054L138.833 64.4517C139.092 63.8949 139.703 63.2983 140.822 63.2983C141.901 63.2983 142.433 63.87 142.433 64.8494V64.8892C142.433 65.456 141.856 65.4062 140.464 65.5852C139.047 65.7692 137.501 66.0824 137.501 67.8324C137.501 69.3239 138.654 70.179 140.106 70.179ZM140.285 69.125C139.35 69.125 138.674 68.7074 138.674 67.892C138.674 66.9972 139.49 66.7188 140.404 66.5994C140.902 66.5398 142.234 66.4006 142.433 66.1619V67.2358C142.433 68.1903 141.677 69.125 140.285 69.125ZM146.364 62.3636H145.191V70H146.364V66.7983H148.323C148.532 68.8416 149.859 70.1591 151.753 70.1591C153.822 70.1591 155.214 68.5881 155.214 66.2216C155.214 63.8352 153.822 62.2642 151.753 62.2642C149.839 62.2642 148.502 63.6115 148.318 65.7045H146.364V62.3636ZM151.753 69.1051C150.182 69.1051 149.466 67.7528 149.466 66.2216C149.466 64.6903 150.182 63.3182 151.753 63.3182C153.324 63.3182 154.04 64.6903 154.04 66.2216C154.04 67.7528 153.324 69.1051 151.753 69.1051ZM162.233 62.3636H161.06V70H162.233V66.7386H165.893V70H167.066V62.3636H165.893V65.6449H162.233V62.3636ZM171.456 70.179C172.788 70.179 173.484 69.4631 173.723 68.9659H173.782V70H174.956V64.9688C174.956 62.5426 173.106 62.2642 172.132 62.2642C170.979 62.2642 169.666 62.6619 169.069 64.054L170.183 64.4517C170.442 63.8949 171.053 63.2983 172.172 63.2983C173.251 63.2983 173.782 63.87 173.782 64.8494V64.8892C173.782 65.456 173.206 65.4062 171.814 65.5852C170.397 65.7692 168.851 66.0824 168.851 67.8324C168.851 69.3239 170.004 70.179 171.456 70.179ZM171.635 69.125C170.7 69.125 170.024 68.7074 170.024 67.892C170.024 66.9972 170.839 66.7188 171.754 66.5994C172.251 66.5398 173.584 66.4006 173.782 66.1619V67.2358C173.782 68.1903 173.027 69.125 171.635 69.125ZM184.137 70.1591C185.827 70.1591 186.941 69.125 187.14 67.7727H185.967C185.748 68.608 185.052 69.1051 184.137 69.1051C182.745 69.1051 181.85 67.9517 181.85 66.1818C181.85 64.4517 182.765 63.3182 184.137 63.3182C185.171 63.3182 185.788 63.9545 185.967 64.6506H187.14C186.941 63.2188 185.728 62.2642 184.117 62.2642C182.049 62.2642 180.677 63.8949 180.677 66.2216C180.677 68.5085 181.989 70.1591 184.137 70.1591ZM188.254 63.4574H190.779V70H191.952V63.4574H194.458V62.3636H188.254V63.4574ZM198.875 70.1591C200.944 70.1591 202.336 68.5881 202.336 66.2216C202.336 63.8352 200.944 62.2642 198.875 62.2642C196.807 62.2642 195.415 63.8352 195.415 66.2216C195.415 68.5881 196.807 70.1591 198.875 70.1591ZM198.875 69.1051C197.304 69.1051 196.588 67.7528 196.588 66.2216C196.588 64.6903 197.304 63.3182 198.875 63.3182C200.446 63.3182 201.162 64.6903 201.162 66.2216C201.162 67.7528 200.446 69.1051 198.875 69.1051ZM204.127 72.8636H205.3V68.8267H205.399C205.658 69.2443 206.155 70.1591 207.627 70.1591C209.536 70.1591 210.868 68.6278 210.868 66.2017C210.868 63.7955 209.536 62.2642 207.607 62.2642C206.115 62.2642 205.658 63.179 205.399 63.5767H205.26V62.3636H204.127V72.8636ZM205.28 66.1818C205.28 64.4716 206.036 63.3182 207.468 63.3182C208.959 63.3182 209.695 64.571 209.695 66.1818C209.695 67.8125 208.939 69.1051 207.468 69.1051C206.056 69.1051 205.28 67.9119 205.28 66.1818ZM215.76 70.1591C217.828 70.1591 219.22 68.5881 219.22 66.2216C219.22 63.8352 217.828 62.2642 215.76 62.2642C213.692 62.2642 212.3 63.8352 212.3 66.2216C212.3 68.5881 213.692 70.1591 215.76 70.1591ZM215.76 69.1051C214.189 69.1051 213.473 67.7528 213.473 66.2216C213.473 64.6903 214.189 63.3182 215.76 63.3182C217.331 63.3182 218.047 64.6903 218.047 66.2216C218.047 67.7528 217.331 69.1051 215.76 69.1051ZM222.185 62.3636H221.011V70H222.185V66.7386H225.844V70H227.017V62.3636H225.844V65.6449H222.185V62.3636ZM229.642 72.8438C230.701 72.8438 231.452 72.282 231.889 71.1136L235.141 62.3835L233.858 62.3636L231.75 68.4489H231.67L229.562 62.3636H228.29L231.114 70.0398L230.895 70.6364C230.477 71.7798 229.94 71.8892 229.085 71.6705L228.787 72.7045C228.906 72.7642 229.244 72.8438 229.642 72.8438ZM241.804 68.2699V62.3636H240.631V70H242.003L245.662 64.0938V70H246.835V62.3636H245.483L241.804 68.2699ZM252.086 70.1591C253.777 70.1591 254.89 69.125 255.089 67.7727H253.916C253.697 68.608 253.001 69.1051 252.086 69.1051C250.694 69.1051 249.799 67.9517 249.799 66.1818C249.799 64.4517 250.714 63.3182 252.086 63.3182C253.12 63.3182 253.737 63.9545 253.916 64.6506H255.089C254.89 63.2188 253.677 62.2642 252.066 62.2642C249.998 62.2642 248.626 63.8949 248.626 66.2216C248.626 68.5085 249.939 70.1591 252.086 70.1591ZM262.81 62.3636H261.637V68.9062H257.978V62.3636H256.804V70H262.81V72.4659H263.983V68.9062H262.81V62.3636ZM267.938 70.179C269.271 70.179 269.967 69.4631 270.205 68.9659H270.265V70H271.438V64.9688C271.438 62.5426 269.589 62.2642 268.614 62.2642C267.461 62.2642 266.148 62.6619 265.552 64.054L266.665 64.4517C266.924 63.8949 267.536 63.2983 268.654 63.2983C269.733 63.2983 270.265 63.87 270.265 64.8494V64.8892C270.265 65.456 269.688 65.4062 268.296 65.5852C266.879 65.7692 265.333 66.0824 265.333 67.8324C265.333 69.3239 266.487 70.179 267.938 70.179ZM268.117 69.125C267.183 69.125 266.506 68.7074 266.506 67.892C266.506 66.9972 267.322 66.7188 268.237 66.5994C268.734 66.5398 270.066 66.4006 270.265 66.1619V67.2358C270.265 68.1903 269.509 69.125 268.117 69.125Z" fill="white"/>
<path d="M124.585 316.273H118.074V325H119.131V317.21H123.528V325H124.585V316.273ZM129.24 325.136C131.012 325.136 132.206 323.79 132.206 321.761C132.206 319.716 131.012 318.369 129.24 318.369C127.467 318.369 126.274 319.716 126.274 321.761C126.274 323.79 127.467 325.136 129.24 325.136ZM129.24 324.233C127.893 324.233 127.279 323.074 127.279 321.761C127.279 320.449 127.893 319.273 129.24 319.273C130.586 319.273 131.2 320.449 131.2 321.761C131.2 323.074 130.586 324.233 129.24 324.233ZM133.161 325H133.502C134.951 325 135.369 323.875 135.462 321.727L135.565 319.392H137.968V325H138.974V318.455H134.61L134.491 321.352C134.406 323.551 134.184 324.062 133.4 324.062H133.161V325ZM143.478 325.136C145.251 325.136 146.444 323.79 146.444 321.761C146.444 319.716 145.251 318.369 143.478 318.369C141.705 318.369 140.512 319.716 140.512 321.761C140.512 323.79 141.705 325.136 143.478 325.136ZM143.478 324.233C142.131 324.233 141.518 323.074 141.518 321.761C141.518 320.449 142.131 319.273 143.478 319.273C144.825 319.273 145.438 320.449 145.438 321.761C145.438 323.074 144.825 324.233 143.478 324.233ZM147.3 325H148.511L150.744 322.188H151.255V325H152.261V322.188H152.772L154.988 325H156.198L153.556 321.676L156.164 318.455H154.971L152.789 321.25H152.261V318.455H151.255V321.25H150.71L148.528 318.455H147.335L149.96 321.676L147.3 325ZM158.641 323.517V318.455H157.635V325H158.811L161.948 319.938V325H162.953V318.455H161.794L158.641 323.517ZM163.905 319.392H166.07V325H167.075V319.392H169.223V318.455H163.905V319.392ZM173.094 325.136C174.424 325.136 175.396 324.472 175.702 323.483L174.731 323.21C174.475 323.892 173.883 324.233 173.094 324.233C171.914 324.233 171.1 323.47 171.053 322.068H175.805V321.642C175.805 319.205 174.356 318.369 172.992 318.369C171.219 318.369 170.043 319.767 170.043 321.778C170.043 323.79 171.202 325.136 173.094 325.136ZM171.053 321.199C171.121 320.18 171.842 319.273 172.992 319.273C174.083 319.273 174.782 320.091 174.782 321.199H171.053ZM176.755 325H177.096C178.545 325 178.962 323.875 179.056 321.727L179.158 319.392H181.562V325H182.567V318.455H178.204L178.085 321.352C177.999 323.551 177.778 324.062 176.994 324.062H176.755V325ZM185.418 320.824V318.455H184.413V325H187.157C188.691 325 189.526 324.062 189.526 322.886C189.526 321.693 188.691 320.824 187.157 320.824H185.418ZM185.418 321.761H187.157C187.954 321.761 188.521 322.247 188.521 322.938C188.521 323.598 187.954 324.062 187.157 324.062H185.418V321.761ZM192.063 318.455H191.057V325H192.063V322.205H195.199V325H196.205V318.455H195.199V321.267H192.063V318.455ZM199.047 320.824V318.455H198.042V325H200.786C202.32 325 203.155 324.062 203.155 322.886C203.155 321.693 202.32 320.824 200.786 320.824H199.047ZM204.195 325H205.201V318.455H204.195V325ZM199.047 321.761H200.786C201.583 321.761 202.15 322.247 202.15 322.938C202.15 323.598 201.583 324.062 200.786 324.062H199.047V321.761ZM207.792 318.455H206.632L208.712 321.727L206.632 325H207.792L209.36 322.46L210.928 325H212.087L209.973 321.727L212.087 318.455H210.928L209.36 321.131L207.792 318.455ZM216.897 327.455H217.903V323.994H217.988C218.21 324.352 218.636 325.136 219.897 325.136C221.533 325.136 222.675 323.824 222.675 321.744C222.675 319.682 221.533 318.369 219.88 318.369C218.602 318.369 218.21 319.153 217.988 319.494H217.869V318.455H216.897V327.455ZM217.886 321.727C217.886 320.261 218.533 319.273 219.761 319.273C221.039 319.273 221.67 320.347 221.67 321.727C221.67 323.125 221.022 324.233 219.761 324.233C218.55 324.233 217.886 323.21 217.886 321.727ZM226.954 325.136C228.283 325.136 229.255 324.472 229.562 323.483L228.59 323.21C228.335 323.892 227.742 324.233 226.954 324.233C225.773 324.233 224.96 323.47 224.913 322.068H229.664V321.642C229.664 319.205 228.215 318.369 226.852 318.369C225.079 318.369 223.903 319.767 223.903 321.778C223.903 323.79 225.062 325.136 226.954 325.136ZM224.913 321.199C224.981 320.18 225.701 319.273 226.852 319.273C227.942 319.273 228.641 320.091 228.641 321.199H224.913ZM231.194 318.455V325H239.154V318.455H238.148V324.062H235.677V318.455H234.671V324.062H232.2V318.455H231.194ZM243.735 325.136C245.065 325.136 246.036 324.472 246.343 323.483L245.371 323.21C245.116 323.892 244.523 324.233 243.735 324.233C242.555 324.233 241.741 323.47 241.694 322.068H246.445V321.642C246.445 319.205 244.996 318.369 243.633 318.369C241.86 318.369 240.684 319.767 240.684 321.778C240.684 323.79 241.843 325.136 243.735 325.136ZM241.694 321.199C241.762 320.18 242.482 319.273 243.633 319.273C244.724 319.273 245.423 320.091 245.423 321.199H241.694ZM248.981 323.517V318.455H247.975V325H249.151L252.288 319.938V325H253.293V318.455H252.134L248.981 323.517ZM256.141 323.517V318.455H255.135V325H256.311L259.448 319.938V325H260.453V318.455H259.294L256.141 323.517ZM258.63 316.273C258.63 316.716 258.391 317.108 257.794 317.108C257.198 317.108 256.976 316.716 256.976 316.273H256.039C256.039 317.193 256.721 317.841 257.794 317.841C258.885 317.841 259.567 317.193 259.567 316.273H258.63Z" fill="#D19130"/>
<path d="M125.42 362.636C125.42 359.875 123.801 358.153 121.568 358.153C119.335 358.153 117.716 359.875 117.716 362.636C117.716 365.398 119.335 367.119 121.568 367.119C123.801 367.119 125.42 365.398 125.42 362.636ZM124.398 362.636C124.398 364.903 123.153 366.131 121.568 366.131C119.983 366.131 118.739 364.903 118.739 362.636C118.739 360.369 119.983 359.142 121.568 359.142C123.153 359.142 124.398 360.369 124.398 362.636ZM129.72 367.136C131.169 367.136 132.124 366.25 132.294 365.091H131.288C131.101 365.807 130.504 366.233 129.72 366.233C128.527 366.233 127.76 365.244 127.76 363.727C127.76 362.244 128.544 361.273 129.72 361.273C130.607 361.273 131.135 361.818 131.288 362.415H132.294C132.124 361.188 131.084 360.369 129.703 360.369C127.93 360.369 126.754 361.767 126.754 363.761C126.754 365.722 127.879 367.136 129.72 367.136ZM133.249 361.392H135.413V367H136.419V361.392H138.567V360.455H133.249V361.392ZM141.62 367.153C142.762 367.153 143.359 366.54 143.563 366.114H143.614V367H144.62V362.688C144.62 360.608 143.035 360.369 142.2 360.369C141.211 360.369 140.086 360.71 139.575 361.903L140.529 362.244C140.751 361.767 141.275 361.256 142.234 361.256C143.158 361.256 143.614 361.746 143.614 362.585V362.619C143.614 363.105 143.12 363.062 141.927 363.216C140.712 363.374 139.387 363.642 139.387 365.142C139.387 366.42 140.376 367.153 141.62 367.153ZM141.773 366.25C140.972 366.25 140.393 365.892 140.393 365.193C140.393 364.426 141.092 364.188 141.876 364.085C142.302 364.034 143.444 363.915 143.614 363.71V364.631C143.614 365.449 142.967 366.25 141.773 366.25ZM145.876 367H146.217C147.666 367 148.083 365.875 148.177 363.727L148.279 361.392H150.683V367H151.689V360.455H147.325L147.206 363.352C147.12 365.551 146.899 366.062 146.115 366.062H145.876V367ZM154.539 362.824V360.455H153.534V367H156.278C157.812 367 158.647 366.062 158.647 364.886C158.647 363.693 157.812 362.824 156.278 362.824H154.539ZM154.539 363.761H156.278C157.075 363.761 157.642 364.247 157.642 364.938C157.642 365.598 157.075 366.062 156.278 366.062H154.539V363.761ZM161.184 360.455H160.178V367H161.184V364.205H164.32V367H165.326V360.455H164.32V363.267H161.184V360.455ZM168.168 362.824V360.455H167.163V367H169.907C171.441 367 172.276 366.062 172.276 364.886C172.276 363.693 171.441 362.824 169.907 362.824H168.168ZM173.316 367H174.322V360.455H173.316V367ZM168.168 363.761H169.907C170.704 363.761 171.271 364.247 171.271 364.938C171.271 365.598 170.704 366.062 169.907 366.062H168.168V363.761ZM178.907 367.136C180.237 367.136 181.208 366.472 181.515 365.483L180.543 365.21C180.288 365.892 179.695 366.233 178.907 366.233C177.727 366.233 176.913 365.47 176.866 364.068H181.617V363.642C181.617 361.205 180.168 360.369 178.805 360.369C177.032 360.369 175.856 361.767 175.856 363.778C175.856 365.79 177.015 367.136 178.907 367.136ZM176.866 363.199C176.934 362.18 177.654 361.273 178.805 361.273C179.896 361.273 180.594 362.091 180.594 363.199H176.866Z" fill="white"/>
<path d="M70.29 325.352C70.0113 325.323 69.8133 325.22 69.696 325.044C69.5787 324.868 69.52 324.648 69.52 324.384C69.52 324.061 69.6007 323.643 69.762 323.13C69.938 322.617 70.1433 322.074 70.378 321.502C70.6127 320.915 70.8253 320.38 71.016 319.896C71.2947 319.207 71.6247 318.371 72.006 317.388C72.3873 316.405 72.8053 315.371 73.26 314.286C73.7293 313.186 74.206 312.13 74.69 311.118L68.882 311.14C68.2953 311.155 67.8333 311.294 67.496 311.558C67.1733 311.822 67.012 312.255 67.012 312.856H66.484V309.6H75.702V311.096C75.174 312.196 74.712 313.245 74.316 314.242C73.9347 315.239 73.59 316.244 73.282 317.256C72.974 318.253 72.6807 319.302 72.402 320.402C72.1233 321.502 71.8227 322.705 71.5 324.01C71.412 324.362 71.2727 324.677 71.082 324.956C70.906 325.235 70.642 325.367 70.29 325.352ZM82.9826 325.352C81.868 325.352 80.944 325.117 80.2106 324.648C79.4773 324.164 78.9053 323.533 78.4946 322.756C78.084 321.964 77.7906 321.099 77.6146 320.16C77.4533 319.221 77.3726 318.29 77.3726 317.366C77.3726 316.442 77.4753 315.503 77.6806 314.55C77.9006 313.597 78.238 312.724 78.6926 311.932C79.1473 311.125 79.734 310.48 80.4526 309.996C81.1713 309.497 82.044 309.248 83.0706 309.248C84.1413 309.248 85.0286 309.49 85.7326 309.974C86.4513 310.458 87.016 311.096 87.4266 311.888C87.852 312.665 88.1526 313.523 88.3286 314.462C88.5046 315.401 88.5926 316.332 88.5926 317.256C88.5926 318.165 88.49 319.097 88.2846 320.05C88.0793 321.003 87.7566 321.883 87.3166 322.69C86.8766 323.482 86.2973 324.127 85.5786 324.626C84.8746 325.11 84.0093 325.352 82.9826 325.352ZM83.1146 324.494C83.7453 324.494 84.266 324.296 84.6766 323.9C85.0873 323.504 85.41 322.976 85.6446 322.316C85.894 321.656 86.07 320.93 86.1726 320.138C86.2753 319.331 86.3266 318.525 86.3266 317.718C86.3266 316.823 86.2753 315.929 86.1726 315.034C86.07 314.139 85.894 313.318 85.6446 312.57C85.3953 311.822 85.058 311.221 84.6326 310.766C84.2073 310.311 83.672 310.084 83.0266 310.084C82.396 310.084 81.8606 310.282 81.4206 310.678C80.9953 311.074 80.6506 311.602 80.3866 312.262C80.1226 312.922 79.932 313.655 79.8146 314.462C79.6973 315.269 79.6386 316.083 79.6386 316.904C79.6386 317.52 79.668 318.173 79.7266 318.862C79.7853 319.551 79.888 320.233 80.0346 320.908C80.196 321.568 80.4086 322.169 80.6726 322.712C80.9366 323.255 81.2666 323.687 81.6626 324.01C82.0586 324.333 82.5426 324.494 83.1146 324.494ZM93.4347 325.374L92.5107 324.604L104.919 309.248L105.909 310.128L93.4347 325.374ZM94.5787 317.63C93.7134 317.63 92.98 317.432 92.3787 317.036C91.792 316.64 91.3447 316.134 91.0367 315.518C90.7434 314.887 90.5967 314.22 90.5967 313.516C90.5967 312.827 90.7507 312.159 91.0587 311.514C91.3667 310.869 91.814 310.333 92.4007 309.908C93.002 309.483 93.728 309.263 94.5787 309.248C95.488 309.219 96.2434 309.402 96.8447 309.798C97.446 310.194 97.8934 310.707 98.1867 311.338C98.48 311.969 98.6267 312.621 98.6267 313.296C98.6267 314.044 98.4434 314.748 98.0767 315.408C97.71 316.068 97.2187 316.603 96.6027 317.014C96.0014 317.425 95.3267 317.63 94.5787 317.63ZM94.6447 316.75C95.1874 316.75 95.6054 316.589 95.8987 316.266C96.2067 315.929 96.4194 315.525 96.5367 315.056C96.6687 314.572 96.7347 314.103 96.7347 313.648C96.7347 313.281 96.698 312.893 96.6247 312.482C96.566 312.057 96.456 311.661 96.2947 311.294C96.1334 310.913 95.9134 310.605 95.6347 310.37C95.356 310.135 95.0114 310.018 94.6007 310.018C94.19 310.018 93.8454 310.128 93.5667 310.348C93.3027 310.568 93.09 310.847 92.9287 311.184C92.7674 311.507 92.65 311.844 92.5767 312.196C92.518 312.548 92.4887 312.863 92.4887 313.142C92.4887 313.494 92.518 313.883 92.5767 314.308C92.65 314.719 92.76 315.107 92.9067 315.474C93.068 315.841 93.288 316.149 93.5667 316.398C93.8454 316.633 94.2047 316.75 94.6447 316.75ZM104.193 325.352C103.283 325.367 102.528 325.176 101.927 324.78C101.325 324.384 100.871 323.871 100.563 323.24C100.269 322.609 100.123 321.957 100.123 321.282C100.123 320.519 100.306 319.815 100.673 319.17C101.039 318.51 101.531 317.982 102.147 317.586C102.763 317.175 103.445 316.97 104.193 316.97C105.073 316.97 105.806 317.168 106.393 317.564C106.979 317.945 107.419 318.451 107.713 319.082C108.021 319.713 108.175 320.38 108.175 321.084C108.175 321.759 108.021 322.426 107.713 323.086C107.405 323.731 106.957 324.267 106.371 324.692C105.784 325.117 105.058 325.337 104.193 325.352ZM104.215 324.56C104.625 324.56 104.963 324.457 105.227 324.252C105.505 324.032 105.718 323.761 105.865 323.438C106.026 323.101 106.136 322.756 106.195 322.404C106.253 322.037 106.283 321.715 106.283 321.436C106.283 321.084 106.246 320.703 106.173 320.292C106.114 319.867 106.004 319.471 105.843 319.104C105.696 318.737 105.483 318.437 105.205 318.202C104.926 317.953 104.567 317.828 104.127 317.828C103.599 317.828 103.181 317.997 102.873 318.334C102.565 318.657 102.345 319.06 102.213 319.544C102.095 320.013 102.037 320.475 102.037 320.93C102.037 321.297 102.073 321.693 102.147 322.118C102.22 322.529 102.337 322.925 102.499 323.306C102.675 323.673 102.902 323.973 103.181 324.208C103.459 324.443 103.804 324.56 104.215 324.56Z" fill="#D19130"/>
<path d="M71.61 367.352C70.554 367.352 69.6813 367.198 68.992 366.89C68.3027 366.567 67.7893 366.171 67.452 365.702C67.1293 365.233 66.968 364.785 66.968 364.36C66.968 364.023 67.056 363.744 67.232 363.524C67.408 363.289 67.6573 363.165 67.98 363.15C68.244 363.135 68.4493 363.187 68.596 363.304C68.7573 363.407 68.8673 363.539 68.926 363.7C68.9847 363.861 69.014 364.008 69.014 364.14C69.014 364.287 68.992 364.433 68.948 364.58C68.904 364.727 68.8453 364.873 68.772 365.02C68.9187 365.519 69.2487 365.878 69.762 366.098C70.29 366.318 70.8547 366.428 71.456 366.428C72.4973 366.428 73.326 366.142 73.942 365.57C74.5727 364.998 74.888 364.169 74.888 363.084C74.888 362.439 74.7853 361.83 74.58 361.258C74.3747 360.671 73.9933 360.195 73.436 359.828C72.8787 359.461 72.0647 359.293 70.994 359.322C70.8767 359.322 70.752 359.329 70.62 359.344C70.488 359.344 70.3413 359.351 70.18 359.366V358.376C70.3413 358.376 70.4953 358.376 70.642 358.376C70.7887 358.376 70.9353 358.376 71.082 358.376C71.8593 358.376 72.468 358.2 72.908 357.848C73.348 357.496 73.6633 357.078 73.854 356.594C74.0447 356.11 74.14 355.663 74.14 355.252C74.14 354.651 74.0593 354.115 73.898 353.646C73.7513 353.162 73.4873 352.788 73.106 352.524C72.7247 352.245 72.1967 352.106 71.522 352.106C70.862 352.106 70.2973 352.282 69.828 352.634C69.3587 352.971 69.0653 353.323 68.948 353.69C69.08 353.837 69.168 353.983 69.212 354.13C69.2707 354.277 69.3 354.431 69.3 354.592C69.3 354.709 69.2633 354.849 69.19 355.01C69.1313 355.157 69.0287 355.281 68.882 355.384C68.7353 355.487 68.5373 355.538 68.288 355.538C67.98 355.538 67.7453 355.428 67.584 355.208C67.4227 354.988 67.342 354.724 67.342 354.416C67.342 354.005 67.5033 353.558 67.826 353.074C68.1487 352.575 68.64 352.15 69.3 351.798C69.9747 351.431 70.818 351.248 71.83 351.248C72.622 351.248 73.3553 351.373 74.03 351.622C74.7047 351.871 75.2473 352.282 75.658 352.854C76.0687 353.411 76.274 354.152 76.274 355.076C76.274 355.531 76.1567 355.993 75.922 356.462C75.702 356.917 75.328 357.342 74.8 357.738C74.2867 358.134 73.5753 358.471 72.666 358.75C74.0593 358.897 75.152 359.344 75.944 360.092C76.7507 360.84 77.154 361.786 77.154 362.93C77.154 363.927 76.89 364.756 76.362 365.416C75.8487 366.061 75.1667 366.545 74.316 366.868C73.48 367.191 72.578 367.352 71.61 367.352ZM85.0881 367.352C83.9734 367.352 83.0494 367.117 82.3161 366.648C81.5828 366.164 81.0108 365.533 80.6001 364.756C80.1894 363.964 79.8961 363.099 79.7201 362.16C79.5588 361.221 79.4781 360.29 79.4781 359.366C79.4781 358.442 79.5808 357.503 79.7861 356.55C80.0061 355.597 80.3434 354.724 80.7981 353.932C81.2528 353.125 81.8394 352.48 82.5581 351.996C83.2768 351.497 84.1494 351.248 85.1761 351.248C86.2468 351.248 87.1341 351.49 87.8381 351.974C88.5568 352.458 89.1214 353.096 89.5321 353.888C89.9574 354.665 90.2581 355.523 90.4341 356.462C90.6101 357.401 90.6981 358.332 90.6981 359.256C90.6981 360.165 90.5954 361.097 90.3901 362.05C90.1848 363.003 89.8621 363.883 89.4221 364.69C88.9821 365.482 88.4028 366.127 87.6841 366.626C86.9801 367.11 86.1148 367.352 85.0881 367.352ZM85.2201 366.494C85.8508 366.494 86.3714 366.296 86.7821 365.9C87.1928 365.504 87.5154 364.976 87.7501 364.316C87.9994 363.656 88.1754 362.93 88.2781 362.138C88.3808 361.331 88.4321 360.525 88.4321 359.718C88.4321 358.823 88.3808 357.929 88.2781 357.034C88.1754 356.139 87.9994 355.318 87.7501 354.57C87.5008 353.822 87.1634 353.221 86.7381 352.766C86.3128 352.311 85.7774 352.084 85.1321 352.084C84.5014 352.084 83.9661 352.282 83.5261 352.678C83.1008 353.074 82.7561 353.602 82.4921 354.262C82.2281 354.922 82.0374 355.655 81.9201 356.462C81.8028 357.269 81.7441 358.083 81.7441 358.904C81.7441 359.52 81.7734 360.173 81.8321 360.862C81.8908 361.551 81.9934 362.233 82.1401 362.908C82.3014 363.568 82.5141 364.169 82.7781 364.712C83.0421 365.255 83.3721 365.687 83.7681 366.01C84.1641 366.333 84.6481 366.494 85.2201 366.494ZM95.5402 367.374L94.6162 366.604L107.024 351.248L108.014 352.128L95.5402 367.374ZM96.6842 359.63C95.8188 359.63 95.0855 359.432 94.4842 359.036C93.8975 358.64 93.4502 358.134 93.1422 357.518C92.8488 356.887 92.7022 356.22 92.7022 355.516C92.7022 354.827 92.8562 354.159 93.1642 353.514C93.4722 352.869 93.9195 352.333 94.5062 351.908C95.1075 351.483 95.8335 351.263 96.6842 351.248C97.5935 351.219 98.3488 351.402 98.9502 351.798C99.5515 352.194 99.9988 352.707 100.292 353.338C100.585 353.969 100.732 354.621 100.732 355.296C100.732 356.044 100.549 356.748 100.182 357.408C99.8155 358.068 99.3242 358.603 98.7082 359.014C98.1068 359.425 97.4322 359.63 96.6842 359.63ZM96.7502 358.75C97.2928 358.75 97.7108 358.589 98.0042 358.266C98.3122 357.929 98.5248 357.525 98.6422 357.056C98.7742 356.572 98.8402 356.103 98.8402 355.648C98.8402 355.281 98.8035 354.893 98.7302 354.482C98.6715 354.057 98.5615 353.661 98.4002 353.294C98.2388 352.913 98.0188 352.605 97.7402 352.37C97.4615 352.135 97.1168 352.018 96.7062 352.018C96.2955 352.018 95.9508 352.128 95.6722 352.348C95.4082 352.568 95.1955 352.847 95.0342 353.184C94.8728 353.507 94.7555 353.844 94.6822 354.196C94.6235 354.548 94.5942 354.863 94.5942 355.142C94.5942 355.494 94.6235 355.883 94.6822 356.308C94.7555 356.719 94.8655 357.107 95.0122 357.474C95.1735 357.841 95.3935 358.149 95.6722 358.398C95.9508 358.633 96.3102 358.75 96.7502 358.75ZM106.298 367.352C105.389 367.367 104.633 367.176 104.032 366.78C103.431 366.384 102.976 365.871 102.668 365.24C102.375 364.609 102.228 363.957 102.228 363.282C102.228 362.519 102.411 361.815 102.778 361.17C103.145 360.51 103.636 359.982 104.252 359.586C104.868 359.175 105.55 358.97 106.298 358.97C107.178 358.97 107.911 359.168 108.498 359.564C109.085 359.945 109.525 360.451 109.818 361.082C110.126 361.713 110.28 362.38 110.28 363.084C110.28 363.759 110.126 364.426 109.818 365.086C109.51 365.731 109.063 366.267 108.476 366.692C107.889 367.117 107.163 367.337 106.298 367.352ZM106.32 366.56C106.731 366.56 107.068 366.457 107.332 366.252C107.611 366.032 107.823 365.761 107.97 365.438C108.131 365.101 108.241 364.756 108.3 364.404C108.359 364.037 108.388 363.715 108.388 363.436C108.388 363.084 108.351 362.703 108.278 362.292C108.219 361.867 108.109 361.471 107.948 361.104C107.801 360.737 107.589 360.437 107.31 360.202C107.031 359.953 106.672 359.828 106.232 359.828C105.704 359.828 105.286 359.997 104.978 360.334C104.67 360.657 104.45 361.06 104.318 361.544C104.201 362.013 104.142 362.475 104.142 362.93C104.142 363.297 104.179 363.693 104.252 364.118C104.325 364.529 104.443 364.925 104.604 365.306C104.78 365.673 105.007 365.973 105.286 366.208C105.565 366.443 105.909 366.56 106.32 366.56Z" fill="white"/>
<path d="M225 196C225 244.601 185.601 284 137 284C88.3989 284 49 244.601 49 196C49 147.399 88.3989 108 137 108C185.601 108 225 147.399 225 196ZM82.077 196C82.077 226.333 106.667 250.923 137 250.923C167.333 250.923 191.923 226.333 191.923 196C191.923 165.667 167.333 141.077 137 141.077C106.667 141.077 82.077 165.667 82.077 196Z" fill="white"/>
<path d="M137 108C153.969 108 170.576 112.906 184.82 122.127C199.065 131.348 210.34 144.491 217.287 159.972C224.234 175.454 226.557 192.614 223.976 209.385C221.395 226.156 214.02 241.824 202.74 254.5C191.46 267.176 176.755 276.321 160.397 280.833C144.039 285.344 126.725 285.03 110.542 279.928C94.358 274.826 79.9946 265.154 69.1814 252.077C58.3683 239 51.5666 223.075 49.5956 206.221L82.4488 202.379C83.6789 212.898 87.924 222.837 94.6728 230.999C101.422 239.161 110.386 245.198 120.487 248.382C130.587 251.566 141.393 251.762 151.603 248.946C161.812 246.13 170.99 240.423 178.03 232.511C185.07 224.6 189.673 214.821 191.284 204.354C192.895 193.886 191.445 183.177 187.109 173.514C182.773 163.852 175.736 155.649 166.846 149.894C157.955 144.139 147.591 141.077 137 141.077V108Z" fill="#D19130"/>
<rect x="39" y="309" width="16" height="16" fill="#D19130"/>
<rect x="39" y="351" width="16" height="16" fill="white"/>
</svg>
